<?xml version="1.0" standalone="no"?>
<!DOCTYPE svg PUBLIC "-//W3C//DTD SVG 20010904//EN"
 "http://www.w3.org/TR/2001/REC-SVG-20010904/DTD/svg10.dtd">
<svg version="1.0" xmlns="http://www.w3.org/2000/svg"
 width="16.000000pt" height="16.000000pt" viewBox="0 0 16.000000 16.000000"
 preserveAspectRatio="xMidYMid meet">
<metadata>
Created by potrace 1.11, written by Peter Selinger 2001-2013
</metadata>
<g transform="translate(0.000000,16.000000) scale(0.002286,-0.002286)"
fill="#000000" stroke="none">
<path d="M5060 6879 c-74 -28 -136 -52 -138 -53 -1 -2 106 -139 238 -306 132
-167 237 -307 233 -311 -10 -10 -415 -179 -428 -179 -6 0 -118 135 -249 300
-131 165 -241 302 -245 304 -7 5 -610 -251 -624 -264 -5 -4 100 -144 233 -311
201 -253 238 -304 223 -310 -10 -4 -164 -68 -342 -143 -178 -75 -326 -135
-328 -133 -2 2 25 16 59 30 57 25 60 28 46 44 -8 10 -113 142 -233 293 -120
151 -224 281 -231 289 -11 12 -60 -7 -321 -118 -169 -73 -311 -135 -314 -139
-4 -4 103 -144 236 -312 134 -168 242 -306 242 -307 -5 -4 -531 -222 -532
-220 -28 39 -480 603 -487 605 -10 4 -628 -259 -628 -267 0 -3 106 -139 235
-301 129 -162 234 -299 232 -304 -3 -10 -586 -256 -607 -255 -8 0 -100 117
-205 260 -104 143 -200 267 -214 276 -22 14 -36 15 -130 4 -109 -13 -130 -23
-131 -66 0 -11 25 -150 55 -310 52 -278 53 -291 36 -305 -29 -25 -41 -55 -41
-102 0 -51 388 -4143 396 -4175 14 -56 73 -79 229 -90 79 -5 4790 439 4862
458 48 13 90 50 100 87 3 14 3 72 0 131 -9 152 -364 3892 -378 3974 -10 61
-17 75 -66 133 -70 83 -93 83 -93 1 0 -39 -120 -689 -129 -699 -7 -7 -623 -61
-649 -56 -17 3 -13 31 54 393 40 214 72 390 71 391 -5 2 -668 -64 -672 -67 -2
-3 -34 -175 -71 -384 -37 -209 -70 -384 -74 -389 -8 -8 -422 -47 -430 -39 -2
2 24 173 58 380 34 207 60 378 59 380 -2 2 -153 -9 -336 -24 -314 -26 -332
-29 -336 -48 -3 -11 -35 -184 -71 -385 -36 -201 -67 -366 -67 -366 -5 -4 -539
-45 -541 -42 -2 1 27 171 63 376 l67 372 -28 0 c-32 0 -641 -60 -643 -63 -1
-1 -32 -168 -69 -372 -37 -203 -68 -371 -70 -372 -4 -4 -238 -25 -241 -21 -2
2 -7 63 -11 136 l-7 134 -154 210 c-85 115 -153 212 -151 213 2 2 75 11 163
21 135 14 165 20 190 40 67 50 -58 -2 3060 1286 664 275 694 287 714 312 7 9
17 52 22 96 l9 80 -76 152 c-42 83 -93 196 -114 250 -22 55 -53 115 -69 134
-17 19 -40 52 -51 74 -11 22 -21 40 -23 39 -1 0 -63 -23 -137 -50z m-1460
-1424 c-14 -8 -29 -14 -35 -14 -5 0 1 6 15 14 14 8 30 14 35 14 6 0 -1 -6 -15
-14z m-70 -30 c-14 -8 -29 -14 -35 -14 -5 0 1 6 15 14 14 8 30 14 35 14 6 0
-1 -6 -15 -14z m-60 -25 c-8 -5 -19 -10 -25 -10 -5 0 -3 5 5 10 8 5 20 10 25
10 6 0 3 -5 -5 -10z m-70 -30 c-8 -5 -19 -10 -25 -10 -5 0 -3 5 5 10 8 5 20
10 25 10 6 0 3 -5 -5 -10z m-2578 -457 c4 -61 -3 -74 -33 -66 -22 6 -34 20
-43 50 -5 17 -1 29 18 48 41 40 54 33 58 -32z m4601 -1690 c-117 -439 -241
-902 -274 -1029 l-62 -231 -241 -23 c-132 -13 -270 -24 -305 -24 l-64 -1 -458
950 c-252 523 -458 953 -458 956 -1 6 498 54 503 48 1 -2 153 -325 336 -717
247 -527 337 -709 342 -695 4 10 94 353 198 762 105 410 193 747 196 750 4 5
401 46 475 50 l26 1 -214 -797z m-4399 700 c11 -68 8 -83 -16 -83 -52 0 -76
62 -38 100 30 30 47 25 54 -17z m416 8 c0 -16 3 -43 6 -60 6 -28 4 -31 -19
-31 -51 0 -76 62 -40 102 26 29 53 23 53 -11z m1830 -133 c9 -66 187 -1984
185 -1986 -5 -6 -464 -46 -469 -41 -2 2 -34 328 -71 724 -37 396 -69 722 -71
724 -2 2 -6 2 -9 -1 -3 -3 -86 -255 -183 -559 l-178 -554 -119 -12 c-66 -6
-138 -12 -161 -12 l-41 -1 -279 515 c-153 283 -282 511 -285 507 -4 -4 24
-331 61 -727 38 -396 66 -722 64 -725 -5 -4 -468 -51 -470 -47 -5 8 -185 1979
-182 1983 6 5 639 67 643 62 1 -2 124 -230 274 -508 150 -278 276 -509 281
-514 5 -5 17 20 28 55 72 233 335 1045 341 1051 5 5 259 32 629 67 6 0 12 0
12 -1z m2280 -1929 c126 -20 212 -74 259 -163 47 -89 53 -234 13 -313 -20 -38
-105 -123 -123 -123 -5 0 -9 -4 -9 -10 0 -5 8 -10 18 -10 31 0 119 -47 156
-84 49 -49 82 -119 97 -201 43 -248 -96 -410 -399 -465 -71 -12 -693 -72 -699
-66 -7 6 -134 1378 -128 1384 4 4 268 31 527 55 92 8 226 6 288 -4z m-1163
-209 c6 -69 10 -127 8 -129 -3 -2 -140 -17 -306 -32 -167 -16 -303 -30 -304
-32 -1 -1 19 -221 24 -267 1 -5 366 26 527 44 l51 6 13 -126 c6 -69 9 -128 6
-131 -3 -3 -131 -18 -285 -32 -154 -15 -282 -29 -284 -31 -2 -3 3 -78 12 -167
l15 -163 25 0 c14 1 157 14 316 29 160 15 291 27 293 25 3 -1 29 -251 27 -255
-1 -2 -985 -94 -985 -92 0 1 -29 313 -65 694 -36 381 -64 693 -63 695 4 3 931
92 948 90 12 -1 18 -28 27 -126z m-1237 -6 c0 -21 -191 -1398 -194 -1402 -2
-1 -92 -11 -202 -21 -130 -13 -201 -16 -205 -9 -3 5 -84 239 -179 519 -147
434 -190 547 -190 501 0 -19 -148 -1074 -151 -1077 -7 -6 -398 -39 -404 -34
-8 9 -455 1329 -455 1345 0 8 11 14 28 15 15 0 86 6 157 13 72 7 133 10 137 7
5 -4 83 -229 174 -499 92 -271 170 -489 175 -485 4 4 37 224 73 488 37 264 70
496 74 515 l8 35 166 15 167 16 167 -496 c92 -272 169 -497 171 -499 1 -2 5
-2 7 0 3 3 37 236 77 519 40 283 74 517 76 519 3 5 224 28 286 30 28 1 37 -3
37 -15z"/>
<path d="M5178 1630 c-38 -3 -70 -9 -73 -12 -6 -6 21 -297 28 -304 10 -10 268
26 296 41 67 34 93 139 53 214 -37 68 -104 82 -304 61z"/>
<path d="M5250 1088 c-52 -5 -96 -11 -97 -12 -1 -1 5 -85 15 -187 l18 -184 89
2 c167 4 274 34 309 88 48 72 39 189 -17 249 -53 56 -113 64 -317 44z"/>
</g>
</svg>
