<?xml version="1.0" standalone="no"?>
<!DOCTYPE svg PUBLIC "-//W3C//DTD SVG 20010904//EN"
 "http://www.w3.org/TR/2001/REC-SVG-20010904/DTD/svg10.dtd">
<svg version="1.0" xmlns="http://www.w3.org/2000/svg"
 width="16.000000pt" height="16.000000pt" viewBox="0 0 16.000000 16.000000"
 preserveAspectRatio="xMidYMid meet">
<metadata>
Created by potrace 1.11, written by Peter Selinger 2001-2013
</metadata>
<g transform="translate(0.000000,16.000000) scale(0.002286,-0.002286)"
fill="#000000" stroke="none">
<path d="M5056 6880 c-70 -27 -130 -51 -133 -54 -3 -3 103 -141 236 -308 230
-290 239 -303 218 -314 -49 -25 -418 -177 -421 -173 -2 2 -110 139 -241 304
-131 165 -240 302 -241 304 -3 4 -351 -142 -601 -251 l-42 -19 239 -302 c132
-166 240 -304 240 -307 0 -3 -125 -57 -277 -121 l-277 -115 -31 40 c-131 171
-458 576 -466 576 -20 0 -629 -265 -626 -273 1 -4 109 -142 241 -308 131 -165
236 -302 234 -305 -7 -7 -507 -214 -517 -214 -4 0 -117 137 -250 304 l-242
305 -82 -35 c-425 -182 -548 -238 -543 -250 3 -7 109 -144 237 -304 127 -160
229 -293 227 -295 -6 -6 -602 -255 -610 -255 -4 0 -93 117 -198 260 -105 143
-203 268 -218 278 -25 18 -33 19 -127 6 -55 -7 -103 -13 -107 -14 -4 0 -13
-12 -21 -26 -12 -22 -9 -50 24 -227 21 -111 43 -248 49 -304 11 -100 10 -103
-12 -133 -18 -25 -22 -43 -21 -88 1 -31 90 -981 197 -2110 157 -1644 199
-2059 212 -2082 10 -15 35 -37 56 -49 38 -20 54 -21 333 -21 l294 0 2158 205
c1187 112 2178 207 2203 210 113 16 169 67 177 163 6 78 -371 4060 -392 4128
-8 29 -24 63 -35 77 -22 27 -125 81 -139 73 -4 -3 -11 -38 -14 -78 -5 -57 -99
-577 -121 -673 -5 -19 -24 -22 -332 -48 -180 -15 -329 -25 -332 -22 -3 2 28
178 67 391 40 212 71 388 69 390 -7 6 -663 -59 -671 -66 -5 -4 -39 -179 -76
-389 -38 -210 -70 -384 -73 -386 -7 -7 -417 -39 -423 -33 -3 3 22 172 56 377
33 205 58 375 55 379 -8 7 -659 -47 -667 -56 -3 -4 -36 -176 -73 -382 -37
-206 -70 -378 -74 -381 -9 -7 -525 -49 -531 -43 -3 2 25 172 62 376 37 205 66
373 64 374 -4 3 -667 -63 -671 -67 -2 -2 -34 -171 -72 -375 l-68 -372 -85 -6
c-48 -4 -103 -9 -123 -12 l-38 -6 0 130 0 129 -161 219 -160 219 113 12 c312
33 371 43 386 64 19 27 111 72 382 184 129 53 352 146 495 205 143 59 312 129
375 155 111 46 470 194 812 336 93 38 374 154 625 258 1061 437 962 393 989
448 15 33 15 44 4 103 -7 36 -20 81 -30 100 -10 19 -54 135 -100 258 -45 122
-92 237 -104 255 -12 17 -36 40 -55 49 -18 9 -40 26 -48 37 -8 12 -17 21 -21
20 -4 0 -65 -22 -136 -49z m-4299 -1992 c-3 -8 -6 -5 -6 6 -1 11 2 17 5 13 3
-3 4 -12 1 -19z m4868 -895 c-3 -16 -126 -478 -273 -1028 l-267 -1000 -285
-27 c-157 -15 -293 -27 -303 -25 -13 1 -139 254 -472 947 -251 520 -453 950
-451 955 3 10 473 58 485 50 3 -2 157 -325 341 -719 184 -393 338 -709 341
-703 4 7 93 352 199 767 106 415 194 756 195 758 1 2 110 13 241 26 132 13
243 24 247 25 5 0 6 -11 2 -26z m-4668 -105 c-3 -8 -6 -5 -6 6 -1 11 2 17 5
13 3 -3 4 -12 1 -19z m420 -10 c-3 -7 -5 -2 -5 12 0 14 2 19 5 13 2 -7 2 -19
0 -25z m1896 -135 c18 -145 180 -1923 176 -1927 -9 -9 -452 -47 -459 -39 -4 4
-37 330 -73 722 -37 393 -71 719 -76 724 -6 6 -17 -15 -29 -54 -86 -278 -336
-1046 -342 -1053 -8 -8 -308 -41 -314 -34 -2 1 -128 234 -281 516 -153 281
-281 512 -286 512 -12 0 -16 51 59 -745 l68 -710 -26 -6 c-53 -14 -431 -42
-439 -33 -7 8 -194 1964 -188 1970 1 1 144 15 317 32 251 24 317 27 325 17 6
-6 133 -240 284 -519 151 -279 275 -505 277 -503 2 2 51 151 109 332 58 182
140 434 180 560 l75 231 267 26 c148 14 291 26 319 27 l51 1 6 -47z m2253
-1874 c161 -22 251 -82 294 -195 29 -74 33 -209 8 -265 -21 -49 -81 -114 -118
-129 -17 -7 -30 -15 -30 -19 0 -3 26 -14 59 -23 73 -22 150 -88 185 -161 72
-147 44 -356 -61 -447 -98 -86 -216 -121 -500 -150 -346 -34 -498 -48 -500
-47 -2 3 -131 1382 -129 1384 2 2 349 36 571 56 85 8 146 7 221 -4z m-1155
-91 c0 -2 6 -58 13 -125 8 -85 9 -123 2 -123 -46 -2 -597 -58 -601 -61 -6 -7
16 -262 24 -271 3 -4 119 4 256 17 138 14 266 25 286 25 l36 0 11 -122 c6 -67
10 -123 9 -125 -2 -1 -131 -15 -288 -29 -156 -15 -285 -28 -287 -29 -1 -1 4
-71 13 -155 8 -84 15 -159 15 -166 0 -19 12 -18 343 12 158 15 289 25 292 23
7 -7 28 -239 22 -245 -6 -6 -967 -98 -972 -93 -1 2 -30 299 -64 659 -33 360
-63 671 -66 690 l-5 35 433 42 c395 37 526 47 528 41z m-1224 -140 c-2 -18
-47 -337 -98 -708 -51 -371 -93 -676 -93 -676 -1 -1 -92 -10 -203 -21 l-202
-19 -171 506 c-95 279 -176 513 -180 520 -5 8 -12 12 -15 8 -5 -5 -155 -1049
-155 -1078 0 -6 -400 -44 -404 -38 -10 11 -455 1341 -451 1347 5 8 313 37 319
30 2 -2 77 -221 167 -487 89 -265 166 -488 170 -494 5 -7 10 -10 13 -7 3 3 37
236 77 519 39 283 73 516 74 518 5 6 326 35 330 30 3 -3 80 -225 171 -494 90
-268 167 -490 169 -493 3 -2 8 -2 11 2 3 3 38 235 78 516 40 281 75 513 78
516 3 3 66 12 139 19 199 20 182 21 176 -16z"/>
<path d="M5213 1637 c-105 -9 -113 -11 -113 -31 0 -55 24 -282 31 -290 4 -5
59 -3 126 3 185 19 247 60 247 164 0 91 -51 150 -139 160 -22 2 -91 0 -152 -6z"/>
<path d="M5236 1089 c-43 -5 -81 -10 -83 -13 -7 -6 28 -369 36 -378 7 -8 252
18 298 31 107 31 158 142 119 254 -39 108 -123 132 -370 106z"/>
</g>
</svg>
